<svg width="35" height="35" viewBox="0 0 20 13" fill="none" xmlns="http://www.w3.org/2000/svg">
<path d="M20 9.04999L17.4187 6.36874L20 4.14378V9.04999Z" fill="currentColor"/>
<path d="M2.58438 6.36874L0 9.05312V4.14378L2.58438 6.36874Z" fill="currentColor"/>
<path d="M20 11.4875V13.9563C20 14.5532 19.5156 15.0376 18.9188 15.0376H1.08125C0.484336 15.0376 0 14.5532 0 13.9563V11.4875L3.86559 7.47501L8.28125 11.2781C8.74063 11.6719 9.34996 11.8907 10 11.8907C10.65 11.8907 11.2625 11.6719 11.7219 11.2781L16.1343 7.47501L20 11.4875Z" fill="currentColor"/>
<path d="M20 1.07813V2.15938L10.5687 10.2844C10.2655 10.5469 9.73434 10.5469 9.43121 10.2844L0 2.15938V1.07813C0 0.481289 0.484297 0 1.08125 0H18.9188C19.5156 0 20 0.481289 20 1.07813Z" fill="currentColor"/>
</svg>
