<svg fill="currentColor" height="200px" width="200px" version="1.1" id="Layer_1" xmlns="http://www.w3.org/2000/svg" xmlns:xlink="http://www.w3.org/1999/xlink" viewBox="0 0 330 330" xml:space="preserve" stroke="currentColor"><g id="SVGRepo_bgCarrier" stroke-width="0"></g><g id="SVGRepo_tracerCarrier" stroke-linecap="round" stroke-linejoin="round"></g><g id="SVGRepo_iconCarrier"> <g id="XMLID_445_"> <path id="XMLID_446_" d="M315,0H15C6.716,0,0,6.716,0,15v230c0,8.284,6.716,15,15,15h45v55c0,5.593,3.111,10.722,8.072,13.305 c2.18,1.135,4.557,1.695,6.926,1.695c3.024,0,6.035-0.913,8.604-2.711L179.729,260H315c8.284,0,15-6.716,15-15V15 C330,6.716,323.284,0,315,0z M250,175H90c-8.284,0-15-6.716-15-15s6.716-15,15-15h160c8.284,0,15,6.716,15,15S258.284,175,250,175z M250,105H90c-8.284,0-15-6.716-15-15s6.716-15,15-15h160c8.284,0,15,6.716,15,15S258.284,105,250,105z"></path> </g> </g></svg>